<svg width="54" height="50" viewBox="0 0 54 50" fill="none" xmlns="http://www.w3.org/2000/svg">
<rect x="0.5" width="52.6667" height="50" rx="5" fill="#718AE3"/>
<g clip-path="url(#clip0_6200_147)">
<path d="M30.1667 13.3333V10H26.8333H23.5V13.3333H26.8333H30.1667Z" fill="#040C1B"/>
<path d="M33.5 13.3333H30.1666V16.6666H33.5H36.8333V19.9999V23.3333V26.6666H40.1666V23.3333V19.9999V16.6666V13.3333H36.8333H33.5Z" fill="#040C1B"/>
<path d="M16.8333 19.9999V16.6666H20.1667H23.5V13.3333H20.1667H16.8333H13.5V16.6666V19.9999V23.3333V26.6666H16.8333V23.3333V19.9999Z" fill="#040C1B"/>
<path d="M20.1667 26.6667H16.8334V30.0001V33.3334H20.1667V30.0001V26.6667Z" fill="#040C1B"/>
<path d="M33.5 30.0001V33.3334H36.8333V30.0001V26.6667H33.5V30.0001Z" fill="#040C1B"/>
<path d="M23.5 33.3333H20.1666V36.6666H23.5V33.3333Z" fill="#040C1B"/>
<path d="M33.5 33.3333H30.1666V36.6666H33.5V33.3333Z" fill="#040C1B"/>
<path d="M23.5 36.6667V40.0001H26.8333H30.1667V36.6667H26.8333H23.5Z" fill="#040C1B"/>
</g>
<defs>
<clipPath id="clip0_6200_147">
<rect width="26.6667" height="30" fill="white" transform="translate(13.5 10)"/>
</clipPath>
</defs>
</svg>
