<svg width="41" height="45" viewBox="0 0 41 45" fill="none" xmlns="http://www.w3.org/2000/svg">
<g clip-path="url(#clip0_1288_3576)">
<path d="M18.0435 4.5H22.5543H27.0652H31.5761V0H27.0652H22.5543H18.0435H13.5326H9.02173V4.5H13.5326H18.0435Z" fill="#06DE6B"/>
<path d="M36.087 9V4.5H31.5761V9V13.5H27.0652H22.5544H18.0435H13.5326H9.02174V9V4.5H4.51087V9V13.5H0V18V22.5V27V31.5H4.51087V36H9.02174V31.5H13.5326H18.0435V27H13.5326H9.02174H4.51087V22.5V18H9.02174H13.5326H18.0435H22.5544H27.0652H31.5761H36.087V22.5V27H31.5761H27.0652H22.5544V31.5H27.0652H31.5761V36H36.087V31.5H40.5978V27V22.5V18V13.5H36.087V9Z" fill="#06DE6B"/>
<path d="M22.5543 22.5H18.0435V27H22.5543V22.5Z" fill="#06DE6B"/>
<path d="M13.5326 36H9.02173V40.5H13.5326V36Z" fill="#06DE6B"/>
<path d="M31.5761 36H27.0652V40.5H31.5761V36Z" fill="#06DE6B"/>
<path d="M18.0436 40.5H13.5327V45H18.0436H22.5545H27.0653V40.5H22.5545H18.0436Z" fill="#06DE6B"/>
</g>
<defs>
<clipPath id="clip0_1288_3576">
<rect width="40.5978" height="45" fill="white"/>
</clipPath>
</defs>
</svg>
