<svg width="56" height="56" viewBox="0 0 56 56" fill="none" xmlns="http://www.w3.org/2000/svg">
<rect x="0.5" y="0.5" width="55" height="55" rx="27.5" stroke="#06DE6B"/>
<path fill-rule="evenodd" clip-rule="evenodd" d="M39.5948 16.125H43.4833V20.0135H39.5948V16.125ZM35.7062 23.9021V20.0135H39.5948V23.9021H35.7062ZM31.8177 27.7906V23.9021L35.7062 23.9021L35.7063 27.7906H31.8177ZM27.9292 31.6792V27.7906H31.8177L31.8177 31.6792H27.9292ZM24.0406 35.5677V31.6792L27.9292 31.6792V35.5677H24.0406ZM20.1521 35.5677H24.0406L24.0406 39.4563H20.1521V35.5677ZM16.2635 31.6792V35.5677H20.1521V31.6792H16.2635ZM16.2635 31.6792V27.7906H12.375V31.6792L16.2635 31.6792Z" fill="#06DE6B"/>
</svg>
