<svg width="51" height="50" viewBox="0 0 51 50" fill="none" xmlns="http://www.w3.org/2000/svg">
<rect x="0.5" width="50" height="50" rx="5" fill="#718AE3"/>
<path d="M12.375 21.25H8.625V25H12.375V21.25Z" fill="black"/>
<path d="M12.375 17.5H8.625V21.25H12.375V17.5Z" fill="black"/>
<path d="M16.125 13.75H12.375V17.5H16.125V13.75Z" fill="black"/>
<path d="M16.125 25H12.375V28.75H16.125V25Z" fill="black"/>
<path d="M19.875 10H16.125V13.75H19.875V10Z" fill="black"/>
<path d="M19.875 28.75H16.125V32.5H19.875V28.75Z" fill="black"/>
<path d="M23.625 13.75H19.875V17.5H23.625V13.75Z" fill="black"/>
<path d="M27.375 17.5H23.625V21.25H27.375V17.5Z" fill="black"/>
<path d="M27.375 36.25H23.625V40H27.375V36.25Z" fill="black"/>
<path d="M31.125 13.75H27.375V17.5H31.125V13.75Z" fill="black"/>
<path d="M23.625 32.5H19.875V36.25H23.625V32.5Z" fill="black"/>
<path d="M31.125 32.5H27.375V36.25H31.125V32.5Z" fill="black"/>
<path d="M34.875 10H31.125V13.75H34.875V10Z" fill="black"/>
<path d="M34.875 28.75H31.125V32.5H34.875V28.75Z" fill="black"/>
<path d="M38.625 13.75H34.875V17.5H38.625V13.75Z" fill="black"/>
<path d="M38.625 25H34.875V28.75H38.625V25Z" fill="black"/>
<path d="M42.375 21.25H38.625V25H42.375V21.25Z" fill="black"/>
<path d="M42.375 17.5H38.625V21.25H42.375V17.5Z" fill="black"/>
</svg>
